# Blender v2.93.1 OBJ File: 'building.blend'
# www.blender.org
mtllib cone.mtl
o Cone_Cone.001
v -1.000000 -0.000000 5.632481
v -1.000000 -0.866025 7.132481
v -1.000000 0.866025 7.132481
v 3.293483 0.000000 6.632481
vt 0.250000 0.490000
vt 0.250000 0.250000
vt 0.457846 0.130000
vt 0.750000 0.490000
vt 0.957846 0.130000
vt 0.542154 0.130000
vt 0.042154 0.130000
vn 0.1157 -0.8602 -0.4966
vn -1.0000 0.0000 -0.0000
vn 0.1157 0.0000 0.9933
vn 0.1157 0.8602 -0.4966
usemtl None
s off
f 1/1/1 4/2/1 2/3/1
f 1/4/2 2/5/2 3/6/2
f 2/3/3 4/2/3 3/7/3
f 3/7/4 4/2/4 1/1/4
